<svg xmlns="http://www.w3.org/2000/svg" version="1.1" xmlns:xlink="http://www.w3.org/1999/xlink" xmlns:svgjs="http://svgjs.dev/svgjs" width="2000" height="1247" viewBox="0 0 2000 1247"><g transform="matrix(1,0,0,1,-1.2121212121212466,75.3175611990348)"><svg viewBox="0 0 396 247" data-background-color="#1ebbd7" preserveAspectRatio="xMidYMid meet" height="1247" width="2000" xmlns="http://www.w3.org/2000/svg" xmlns:xlink="http://www.w3.org/1999/xlink"><g id="tight-bounds" transform="matrix(1,0,0,1,0.2400000000000091,-0.09999999999999432)"><svg viewBox="0 0 395.52 247.2" height="247.2" width="395.52"><g><svg></svg></g><g><svg viewBox="0 0 395.52 247.2" height="247.2" width="395.52"><g transform="matrix(1,0,0,1,75.54432,66.26329874055415)"><svg viewBox="0 0 244.43135999999998 114.67340251889169" height="114.67340251889169" width="244.43135999999998"><g><svg viewBox="0 0 244.43135999999998 114.67340251889169" height="114.67340251889169" width="244.43135999999998"><g><svg viewBox="0 0 244.43135999999998 114.67340251889169" height="114.67340251889169" width="244.43135999999998"><g><svg viewBox="0 0 244.43135999999998 114.67340251889169" height="114.67340251889169" width="244.43135999999998"><g><svg viewBox="0 0 244.43135999999998 114.67340251889169" height="114.67340251889169" width="244.43135999999998"><g><svg viewBox="0 0 244.43135999999998 114.67340251889169" height="114.67340251889169" width="244.43135999999998"><g transform="matrix(1,0,0,1,0,0)"><svg width="244.43135999999998" viewBox="3 -36.79999923706055 79.4000015258789 37.25" height="114.67340251889169" data-palette-color="#010c80"><path d="M14.7 0L5.85 0Q4.55 0 3.78-0.6 3-1.2 3-2L3-2 3-34.55Q3-35.35 3.78-35.95 4.55-36.55 5.85-36.55L5.85-36.55 14.7-36.55Q18.05-36.55 20.7-35.43 23.35-34.3 24.93-31.78 26.5-29.25 26.5-25.1L26.5-25.1 26.5-11.45Q26.5-7.3 24.93-4.78 23.35-2.25 20.7-1.13 18.05 0 14.7 0L14.7 0ZM9.5-30.85L9.5-5.7 14.7-5.7Q17.2-5.7 18.6-7.13 20-8.55 20-11.45L20-11.45 20-25.1Q20-28 18.6-29.43 17.2-30.85 14.75-30.85L14.75-30.85 9.5-30.85ZM43.4 0.3L43.4 0.3Q40.1 0.3 37.45-0.83 34.8-1.95 33.25-4.48 31.7-7 31.7-11.15L31.7-11.15 31.7-25.1Q31.7-29.25 33.25-31.78 34.8-34.3 37.42-35.43 40.05-36.55 43.4-36.55L43.4-36.55Q46.7-36.55 49.37-35.43 52.05-34.3 53.6-31.78 55.15-29.25 55.15-25.1L55.15-25.1 55.15-11.15Q55.15-7 53.6-4.48 52.05-1.95 49.37-0.83 46.7 0.3 43.4 0.3ZM43.4-5.4L43.4-5.4Q45.85-5.4 47.25-6.8 48.65-8.2 48.65-11.15L48.65-11.15 48.65-25.1Q48.65-28.05 47.25-29.45 45.85-30.85 43.4-30.85L43.4-30.85Q40.95-30.85 39.55-29.45 38.15-28.05 38.15-25.1L38.15-25.1 38.15-11.15Q38.15-8.2 39.55-6.8 40.95-5.4 43.4-5.4ZM70.5 0.45L70.5 0.45Q67.25 0.45 64.62-0.5 62-1.45 60.47-2.88 58.95-4.3 58.95-5.75L58.95-5.75Q58.95-6.45 59.32-7.28 59.7-8.1 60.35-8.68 61-9.25 61.8-9.25L61.8-9.25Q62.6-9.25 63.3-8.68 64-8.1 64.9-7.33 65.8-6.55 67.09-5.98 68.4-5.4 70.3-5.4L70.3-5.4Q71.8-5.4 73.07-5.88 74.34-6.35 75.12-7.3 75.9-8.25 75.9-9.75L75.9-9.75Q75.9-11.35 75.05-12.45 74.2-13.55 72.75-14.35 71.3-15.15 69.59-15.9 67.9-16.65 66.17-17.5 64.45-18.35 63.02-19.55 61.6-20.75 60.72-22.5 59.85-24.25 59.85-26.8L59.85-26.8Q59.85-29.6 60.92-31.5 62-33.4 63.77-34.58 65.55-35.75 67.7-36.27 69.84-36.8 72-36.8L72-36.8Q73.15-36.8 74.72-36.63 76.3-36.45 77.87-36 79.45-35.55 80.47-34.77 81.5-34 81.5-32.8L81.5-32.8Q81.5-32.2 81.22-31.4 80.95-30.6 80.37-29.98 79.8-29.35 78.9-29.35L78.9-29.35Q78.09-29.35 77.32-29.83 76.55-30.3 75.32-30.78 74.09-31.25 72-31.25L72-31.25Q70.25-31.25 68.95-30.78 67.65-30.3 67-29.48 66.34-28.65 66.34-27.4L66.34-27.4Q66.34-26.1 67.22-25.2 68.09-24.3 69.52-23.6 70.95-22.9 72.65-22.2 74.34-21.5 76.07-20.58 77.8-19.65 79.25-18.35 80.7-17.05 81.55-15.13 82.4-13.2 82.4-10.4L82.4-10.4Q82.4-6.85 80.84-4.42 79.3-2 76.62-0.78 73.95 0.45 70.5 0.45Z" opacity="1" transform="matrix(1,0,0,1,0,0)" fill="#ffffff" class="undefined-text-0" data-fill-palette-color="primary" id="text-0"></path></svg></g></svg></g></svg></g></svg></g><g></g></svg></g></svg></g></svg></g><g><path d="M143.77 39.192A122.216 122.216 0 0 1 251.75 39.192L241.409 39.192A111.874 111.874 0 0 0 154.111 39.192L143.77 39.192M143.77 208.008A122.216 122.216 0 0 0 251.75 208.008L241.409 208.008A111.874 111.874 0 0 1 154.111 208.008L143.77 208.008" fill="#ffffff" stroke="transparent" data-fill-palette-color="tertiary"></path></g></svg></g><defs></defs></svg><rect width="395.52" height="247.2" fill="none" stroke="none" visibility="hidden"></rect></g></svg></g></svg>